<svg xmlns="http://www.w3.org/2000/svg" width="28.481" height="26.601" viewBox="0 0 28.481 26.601"><path d="M28.221,3.771,24.445.244a.935.935,0,0,0-1.259,0L21.927,1.42a.793.793,0,0,0,0,1.176L17.662,6.579A7.489,7.489,0,0,0,9.853,7.994l-8.81,8.229a3.173,3.173,0,0,0,0,4.7l5.035,4.7a3.741,3.741,0,0,0,5.035,0L19.924,17.4a6.327,6.327,0,0,0,1.515-7.293L25.7,6.122a.935.935,0,0,0,1.259,0l1.259-1.176A.793.793,0,0,0,28.221,3.771ZM9.97,21.993l-5.035-4.7,6.789-6.341,5.035,4.7L9.97,21.993Z" transform="translate(-0.001 0)"/></svg>