<svg xmlns="http://www.w3.org/2000/svg" width="117.69" height="183.424" viewBox="0 0 117.69 183.424"><g transform="translate(-0.266 1279.906)"><path d="M66.43-1278.558c-8.134,3.468-12.458,5.934-16.317,9.316-1.466,1.3-1.771,1.634-1.5,1.663a12.344,12.344,0,0,1,1.637.33,24.316,24.316,0,0,0,4.556.229,29.419,29.419,0,0,1,3.566.115,3.641,3.641,0,0,1-.574.774l-.586.674-1.282-.229a35.77,35.77,0,0,0-8.672.014,12,12,0,0,0-1.185.287c-.024.029.965.115,2.186.215a45.9,45.9,0,0,1,7.646,1.147c.1.072.024.244-.269.573l-.415.473-1.563-.229a27.521,27.521,0,0,0-6.058-.244,13.225,13.225,0,0,0-3.4.588,7.371,7.371,0,0,0,1.747.186c.953.057,2.455.186,3.322.315a48.521,48.521,0,0,1,4.812.874,3.57,3.57,0,0,1-.4.659l-.452.631-1.307-.186a35.8,35.8,0,0,0-7.841.014c-2.357.4-2.443.459-.916.559,3.261.244,5.13.43,6.778.688,2.369.387,2.272.33,1.893.9-.305.459-.305.473-1,.358a28.722,28.722,0,0,0-9.5.143l-1.1.244,1.588.115a54.7,54.7,0,0,1,8.574,1.075c.1.057.024.258-.244.63l-.391.545-1.527-.172a30.965,30.965,0,0,0-3.786-.086c-3.261.129-6.546.8-3.908.817a46.469,46.469,0,0,1,4.922.373c.757.143.4.3-.867.373a7.214,7.214,0,0,0-4.006,1.347,4.3,4.3,0,0,1-1.27.7,1.288,1.288,0,0,0-.55.215c-.037.072.122.086.366.043.489-.086.489-.057.232.817a3.5,3.5,0,0,0-.122,1.39c.073.717.061.745-.256.8s-.33.057.037.086c.305.014.415.1.55.459a9.342,9.342,0,0,0,.672,1.276l.513.831-.965.244a4.76,4.76,0,0,0-.965.3,4.711,4.711,0,0,0,1.2-.029l1.2-.1,1,.7c1.075.76,1.27,1.018.843,1.118-.147.043-.867.215-1.612.4l-1.343.33,1.771.043c1.221.029,1.8.086,1.856.215a2.487,2.487,0,0,1,.1.76v.6l-1.148.229c-.623.143-1.4.33-1.734.444-.586.186-.55.186,1.1.2l1.7.014-.085.444c-.037.244-.073.53-.073.631s-.244.229-.574.287c-.525.086-.6.072-.831-.272l-.256-.373-.269.358c-.269.358-.635.487-.635.215,0-.229-.318-.158-.647.158l-.318.287.171-.573c.208-.717.159-.745-.183-.1-.171.344-.318.473-.452.416-.256-.115-.525.315-.525.831,0,.473-.037.5-.66.631-.366.086-.452.072-.379-.072a.22.22,0,0,0-.073-.287c-.122-.1-.049-.43.354-1.605a23.93,23.93,0,0,0,1-3.483,19.774,19.774,0,0,0-1.087,2.021c-.6,1.175-1.172,2.236-1.27,2.336-.159.143-.256.129-.562-.043a1.424,1.424,0,0,0-.55-.229.293.293,0,0,1-.244-.129,11.327,11.327,0,0,1,.708-2.035,38.065,38.065,0,0,0,1.783-5.6,15.528,15.528,0,0,0-1.111,2.107c-.623,1.261-1.588,3.139-2.174,4.185-.9,1.648-1.087,1.878-1.319,1.82-.5-.158-.757.072-.9.745s-.281.788-.4.4a5.231,5.231,0,0,1,.806-1.835,46.846,46.846,0,0,0,3.505-8.313,17.278,17.278,0,0,0,.464-1.906,10.748,10.748,0,0,0-.818,1.562c-1.014,2.15-2.6,5.131-3.762,7.023l-.94,1.548-.293-.7-.293-.688.489-.846a40.479,40.479,0,0,0,3.42-8.155c.635-2.222.562-2.207-.574.143a77.291,77.291,0,0,1-4.006,7.238,1.819,1.819,0,0,1-.391-.645l-.305-.645.4-.831c1.356-2.752,3.322-8.284,3.322-9.3,0-.143-.33.473-.733,1.361a60.588,60.588,0,0,1-3.75,7.281c-.037-.043-.244-.373-.452-.745l-.391-.674.684-1.591c.366-.874.892-2.221,1.148-2.981a28.184,28.184,0,0,0,1.111-4.242,7.857,7.857,0,0,0-.623,1.276c-.611,1.448-1.893,4.128-2.626,5.475l-.44.831-.427-.674-.427-.688.293-.788a39.22,39.22,0,0,0,1.808-6.579c-.024-.043-.11.1-.171.3-.171.53-2.455,5.876-2.577,6.02-.049.072-.293-.158-.525-.5l-.44-.631.244-.788c.293-.889,1.087-4.085,1.087-4.329a16.506,16.506,0,0,0-.94,2.078c-.513,1.247-.965,2.265-1,2.265a3.01,3.01,0,0,1-.562-.487l-.476-.473.318-1.276c.452-1.763.708-2.881.708-3.024,0-.057-.354.745-.794,1.792l-.782,1.906-.476-.444-.476-.444.269-1.1c.5-2.007.464-2.193-.147-.717a9.031,9.031,0,0,1-.635,1.4,3.713,3.713,0,0,1-.623-.487l-.55-.473-.342-2.623c-.379-2.909-.806-5.518-1.258-7.668a27.92,27.92,0,0,0-1.563-5.332,8.706,8.706,0,0,0-1.392,2.58c-.574,1.806-.684,2.838-.7,6.636v3.6l-1.49,1.921c-2.589,3.325-3.688,5.188-4.275,7.281a5.644,5.644,0,0,0-.256,1.233,12.83,12.83,0,0,0,3.554-.788,21.121,21.121,0,0,0,6.4-4.242,2.684,2.684,0,0,1,.794-.631,2.246,2.246,0,0,1,.635.487l.489.487-.562,1.132c-.305.616-.684,1.376-.831,1.691l-.281.573.33-.43c.171-.244.623-.9,1-1.476a6.461,6.461,0,0,1,.782-1.032,1.633,1.633,0,0,1,.733.76,22.466,22.466,0,0,1-1.026,2.222,20.821,20.821,0,0,0-.94,1.964,21.141,21.141,0,0,0,1.295-1.878l1.2-1.792.525.6.525.616-.22.43c-.122.244-.574,1.147-.989,2.021s-.989,1.978-1.246,2.465a4.187,4.187,0,0,0-.4.9A46.623,46.623,0,0,0,22.938-1248l.757-1.261.513.745.5.745-.293.588c-.147.315-.769,1.476-1.38,2.566-.769,1.376-1.148,1.949-1.27,1.906a24.32,24.32,0,0,0-3.151-.86c-3.127-.616-8.036-.674-9.856-.115-2.492.788-3.627,2.164-4.372,5.26a8.328,8.328,0,0,1-1.576,3.641,2.058,2.058,0,0,0-.574,2.307c.256,1.161.269,1.132-.256.989a4.131,4.131,0,0,0-.916-.129c-.391,0-.489.072-.66.444a1.648,1.648,0,0,0-.11.975c.122.731.134.745.708.444a1.891,1.891,0,0,1,1.661-.143c.22.129.22.172-.024,1.247a15.936,15.936,0,0,0-.256,3.626,9.838,9.838,0,0,0,.33,3.655,10.287,10.287,0,0,0,1.905,3.755l.672.831v2.58a21.731,21.731,0,0,1-.269,4.085,6.469,6.469,0,0,0-.073,3.311,11.521,11.521,0,0,0,3.615,5.317,3.85,3.85,0,0,1,.953,1.046c0,.115.134,1.677.305,3.468,1.111,12.111,1.954,25.77,2.382,38.526.122,3.54.354,16.411.366,19.521v1.462l-.721.573a5.162,5.162,0,0,0-1.783,2.365,15.83,15.83,0,0,0,.2,2.523,38.39,38.39,0,0,1,.012,9.56,5.142,5.142,0,0,0-.1,2.479c1.111,6.263,10.357,11.882,24.012,14.6a90.784,90.784,0,0,0,20.4,1.691,86.73,86.73,0,0,0,14.961-1.333,73.047,73.047,0,0,0,11.823-3.11l1.307-.5.672,1.018a9.173,9.173,0,0,0,1.685,1.863c5.447,4.6,10,7.4,13.948,8.557a12.489,12.489,0,0,0,8.794-.2c6.021-2.379,9.209-6.421,10.039-12.77a36.245,36.245,0,0,0-.2-8.112c-1.38-8.141-4.25-14.261-8.537-18.188l-.391-.373,1.16-1.62a19.367,19.367,0,0,0,1.343-2.035,3.615,3.615,0,0,0-.073-2.451c-.147-.33-1.783-4.787-3.664-9.9-2.259-6.206-3.505-9.459-3.737-9.732-.44-.53-.782-.631-3.408-.917l-2.211-.244-.4-1.161a30.386,30.386,0,0,0-2.455-5.36,25.089,25.089,0,0,0-3.334-4.672c-.427-.373-.44-.416-.44-1.347,0-3.1,1.295-16.812,2.211-23.562l.244-1.82,1.2-1.4a8.709,8.709,0,0,0,1.71-2.623,6,6,0,0,0,.366-4.314,20.255,20.255,0,0,1-.293-4c0-1.3.049-2.809.11-3.368l.1-1,.269.4.269.4.721-1.118a12.921,12.921,0,0,0,1.783-4.343,14.912,14.912,0,0,0-.134-5.733,22.723,22.723,0,0,0-3.664-7.51c-.611-.831-.708-1.018-.55-1.132a11.458,11.458,0,0,1,3.933-.1,15.353,15.353,0,0,1,3.31,1.161c.379.186.4.172.879-.387a1.891,1.891,0,0,0,.44-2.093,1.01,1.01,0,0,0-.66-.659,13.386,13.386,0,0,0-4.482-.53H96.9l1.282-1.5a8.559,8.559,0,0,0,1.673-2.437c.989-2.379.855-4.644-.452-7.854L98.8-1253.3l-.769.788a13.313,13.313,0,0,0-3.456,6.134,13.78,13.78,0,0,0,.525,6.392c.049.143-.049.2-.342.2-.4,0-.427-.043-1.246-1.906-2.895-6.622-6.571-9.6-11.041-8.986a12.558,12.558,0,0,0-1.82.4l-.647.244.672,1.147a19.842,19.842,0,0,1,2,4.8,16.482,16.482,0,0,1,.208,5.4,12.351,12.351,0,0,1-1.4,3.712l-.366.6-1.93-.559c-1.063-.315-2.956-.788-4.2-1.075s-2.272-.545-2.3-.559c-.061-.057.818-4.744,1.343-7.166,1.282-5.919,2.711-9.187,4.446-10.19a2.167,2.167,0,0,1,1.551-.33c2.736.172,4.409-.129,6.021-1.046a7.375,7.375,0,0,0,2.443-2.422c.989-1.849.806-4.156-.5-6.507a21.985,21.985,0,0,0-3.847-4.472c-1-.874-1.185-1.089-1.368-1.691a10.623,10.623,0,0,0-1.905-3.239,5.508,5.508,0,0,0-3.261-1.677c-1.783-.129-3.3.745-5.044,2.909a8.587,8.587,0,0,0-1.856,3.555c0,.158-.024.258-.061.215a6.67,6.67,0,0,1,.049-1.3c.22-2.25-.208-3.726-1.014-3.483-.44.129-.647.444-1.05,1.577a4.86,4.86,0,0,1-1.759,2.537c-.684.416-.806.3-.806-.817,0-.8.11-.974.672-1.146.537-.143.684-.33.55-.631-.208-.459-.134-.573.354-.573.4,0,.537-.1,1.075-.76a11.636,11.636,0,0,0,1.783-3.082,4.229,4.229,0,0,0,.391-1.935c0-.9-.024-1.018-.342-1.333a1.09,1.09,0,0,0-.672-.33A36.2,36.2,0,0,0,66.43-1278.558Zm4.446,13.243a12.344,12.344,0,0,0,.5,1.276,3.269,3.269,0,0,1,.305.846c0,.315-.794,3.6-1.368,5.633a60.107,60.107,0,0,1-1.954,5.905l-.5,1.247-.318-.258c-.342-.287-.989-.33-1.136-.086-.061.086-.134.086-.232-.029-.122-.143-.2-.143-.33,0-.159.143-.171.086-.11-.43.049-.358.037-.631-.037-.688s-.122-.029-.122.043-.11.172-.244.215-.22.014-.183-.043a1.324,1.324,0,0,0-.244-.659,2.51,2.51,0,0,1-.305-.645c0-.057-.159-.2-.354-.315a.6.6,0,0,0-.745,0,.93.93,0,0,1-.452.129,1.348,1.348,0,0,1,.2-.53,2.106,2.106,0,0,0,.256-.745c0-.158.061-.229.159-.172.073.057.012-.043-.147-.215a35.81,35.81,0,0,0-6.546-4.156,11.5,11.5,0,0,1-1.063-.559c-.061-.057.147-.387.452-.731l.562-.645,2.284.9c1.258.5,3.114,1.29,4.116,1.749s1.856.86,1.893.86a9.643,9.643,0,0,0-.977-.8A45.21,45.21,0,0,0,58.8-1261.5c-.464-.229-.879-.43-.9-.459-.11-.086,1.014-1.333,1.209-1.333a53.373,53.373,0,0,1,5.63,2.293c1.038.487,1.966.9,2.064.946a4.217,4.217,0,0,0-.855-.717,40.46,40.46,0,0,0-5.13-3.167,9.171,9.171,0,0,1-.843-.444,4.36,4.36,0,0,1,.721-.989l.769-.917,1.722.731c3.957,1.648,4.788,1.978,5.044,1.978.586,0,1.661-2.021,2.076-3.941l.22-.96.073,1.261A10.807,10.807,0,0,0,70.876-1265.315Zm-13.74,7.754a42.221,42.221,0,0,1,6.094,2.838c.073.258-1.612.774-2.479.745a1.039,1.039,0,0,0-.611.2c-.208.186-.22.258-.085.5.22.43.1.373-1.136-.487a13.9,13.9,0,0,0-1.551-1c-.452-.244-.684-.731-.464-.989a.69.69,0,0,0,.122-.4c0-.344-.318-.33-1.038.029l-.562.287-.9-.444-.916-.459.623-.831a5.6,5.6,0,0,1,.684-.846C54.949-1258.421,55.951-1258.034,57.135-1257.561Zm-2.968,2.508a3.578,3.578,0,0,1,1.185.616c.183.229.183.272-.037.43a.722.722,0,0,0-.244.53c0,.2-.049.358-.1.358a25.224,25.224,0,0,1-2.858-1.276c-.159-.172.635-1.175.867-1.1C53.093-1255.454,53.618-1255.253,54.168-1255.053Zm-.7,2.494c.892.315,1.637.588,1.661.616a4.1,4.1,0,0,1-.305,1.863l-.2.3-1.1-.516a4.22,4.22,0,0,1-1.16-.7,17.469,17.469,0,0,1-.537-2.121C51.847-1253.118,52.592-1252.86,53.471-1252.559Zm7.438.688.269.344-.269.4c-.305.444-.611.358-.5-.143a.752.752,0,0,0-.11-.53,1.878,1.878,0,0,1-.256-.487c-.061-.215-.037-.229.256-.086A2.251,2.251,0,0,1,60.909-1251.871Zm-7.4,2.365c.9.287,1.1.473.7.688-.66.373-.9.588-.94.846-.049.344-.2.373-.745.143-.293-.129-.366-.229-.305-.4a5.558,5.558,0,0,0,.134-.917,1.832,1.832,0,0,1,.134-.674C52.507-1249.821,52.971-1249.678,53.508-1249.506Zm-1.343,2.766a2.818,2.818,0,0,1-.281.874l-.232.459-.733-.215-.733-.215.513-.4a4.158,4.158,0,0,0,.757-.7.619.619,0,0,1,.489-.272C52.152-1247.184,52.189-1247.084,52.165-1246.74Zm-26.222.96a16.306,16.306,0,0,1-2.223,3.984,7.133,7.133,0,0,1-1.368-.674,9.975,9.975,0,0,1,.806-1.218c.464-.659,1.148-1.634,1.5-2.164l.647-.989.281.416A2.709,2.709,0,0,1,25.942-1245.78Zm25.416.874c.134.143-.244,1.2-.55,1.562-.33.387-.415.416-.916.33-.33-.057-.562-.186-.562-.287a11.2,11.2,0,0,1,.427-1.634c.049-.158.232-.172.818-.1A3.489,3.489,0,0,1,51.358-1244.905Zm-24.219,1.3.44.846-.635.86c-.354.473-.782,1.046-.953,1.29l-.318.444-.537-.487c-.293-.258-.586-.53-.647-.588a7.667,7.667,0,0,1,1.038-1.691c.623-.86,1.148-1.562,1.16-1.548S26.907-1244.06,27.139-1243.6Zm23.034,1.075c.134.1.085.258-.269.745a3.047,3.047,0,0,0-.452.7.985.985,0,0,1-.366.33c-.427.3-.44.258-.171-.975l.2-.932h.452A1.282,1.282,0,0,1,50.174-1242.526Zm-21.728,1.749.379.86-.489.688c-.831,1.175-.794,1.161-1.49.358l-.6-.688.879-1.046c.489-.573.9-1.046.916-1.046A6.87,6.87,0,0,1,28.446-1240.778ZM29.582-1238a3.2,3.2,0,0,1,.208.688,21.766,21.766,0,0,1-2.907,3.4c-.2,0-1.148-.874-1.1-1,.024-.057.537-.588,1.136-1.175s1.38-1.376,1.71-1.734a6.473,6.473,0,0,1,.684-.674A1.482,1.482,0,0,1,29.582-1238Zm-2.589-.086c.318.086.305.115-.745,1.433l-1.063,1.347-.94-.7-.928-.717.769-.745.757-.731.916.014A5.866,5.866,0,0,1,26.993-1238.083Zm-3.444.588a4.038,4.038,0,0,1-.44.573c-.208,0-1.014-.616-.94-.717a6.2,6.2,0,0,1,1.612-.416C23.866-1238.054,23.756-1237.811,23.549-1237.5Zm7.4,3.425c.073.287.049.33-.11.258-.11-.057-.281-.143-.391-.186-.122-.072-.208,0-.256.2-.049.244-.281.358-1.209.616-1.417.4-1.673.272-.879-.459.293-.258.9-.86,1.38-1.333l.855-.846.256.7C30.742-1234.729,30.9-1234.256,30.95-1234.07Zm-27.163,1.218c-.171.516-.354.889-.4.831a2.744,2.744,0,0,1-.159-.631.8.8,0,0,1,.171-.817.83.83,0,0,1,.489-.3C4.1-1233.769,4.093-1233.712,3.787-1232.852Zm97.939,86.554a19.925,19.925,0,0,1,.831,2.394c-.024.072-.427-.287-.916-.831l-.879-.96-.061-1.648c-.037-.975-.024-1.562.037-1.433S101.238-1147.545,101.727-1146.3Z" transform="translate(0 0)"/></g></svg>