<svg xmlns="http://www.w3.org/2000/svg" width="57.013" height="170.842" viewBox="0 0 57.013 170.842"><g transform="translate(-135.136 1199)"><path d="M157.1-1198.7c-.9.585-.955.827-1,4.534-.043,2.894-.014,3.436.2,3.992s.228,1,.157,3.55l-.086,2.923-1.055,1.583a96.339,96.339,0,0,0-5.575,9.895c-6.273,12.233-9.011,18.393-10.693,24.124a4.05,4.05,0,0,1-1.554,2.424c-2.481,2.509-2.98,4.833-1.625,7.485a9.414,9.414,0,0,0,1,1.5l.627.756-.642.8a10.311,10.311,0,0,0-1.084,1.725,4.044,4.044,0,0,0-.442,2.353,3.927,3.927,0,0,0,.456,2.353,11.558,11.558,0,0,0,1.226,1.854l.77.927L137-1125c-2.324,2.738-2.367,5.7-.114,8.455l.67.813-.556.642c-2.224,2.538-2.253,5.546-.071,8.27l.684.855-.6.642a7.7,7.7,0,0,0-1.754,3.379,6.263,6.263,0,0,0,1.64,5.147l.67.741-.6.67a10.511,10.511,0,0,0-1.112,1.74,3.878,3.878,0,0,0-.528,2.438,3.919,3.919,0,0,0,.542,2.467,9.492,9.492,0,0,0,1.255,1.868l.713.784-.813.955a10.88,10.88,0,0,0-1.255,1.9,4.133,4.133,0,0,0-.442,2.438,3.946,3.946,0,0,0,.456,2.424,9.709,9.709,0,0,0,1.112,1.668,4.473,4.473,0,0,1,.642.827,4.293,4.293,0,0,1-.57.756,6.262,6.262,0,0,0-1.583,4.962,7.412,7.412,0,0,0,1.654,3.308,4.623,4.623,0,0,1,.642.813,4.475,4.475,0,0,1-.642.827,9.7,9.7,0,0,0-1.112,1.668,3.945,3.945,0,0,0-.456,2.424,4.059,4.059,0,0,0,.442,2.424,10.309,10.309,0,0,0,1.084,1.725l.642.8-.7.841a6.1,6.1,0,0,0-1.426,5.846,7.619,7.619,0,0,0,1.725,2.823l.428.413-.642.727a6.221,6.221,0,0,0-1.611,5.047c.556,3.45,4.705,6.715,11.249,8.868.67.214,1.911.67,2.766,1a40.489,40.489,0,0,0,10.209,2.224c6.972.77,15.513-.413,20.816-2.894.741-.356,1.811-.813,2.353-1.041,5.161-2.067,8.384-4.748,9.139-7.614a5.921,5.921,0,0,0-1.055-5.019,9.464,9.464,0,0,0-.927-1.169c-.214-.171-.2-.228.128-.57a9.268,9.268,0,0,0,.927-1.24c1.583-2.381,1.3-5.147-.77-7.557l-.485-.556.713-.87a9.738,9.738,0,0,0,1.155-1.782,4.044,4.044,0,0,0,.442-2.353,3.984,3.984,0,0,0-.542-2.524,8.621,8.621,0,0,0-1.155-1.768l-.613-.7.627-.77a7.205,7.205,0,0,0,1.526-2.709c.57-1.939.086-3.764-1.526-5.732l-.627-.77.627-.713a9.619,9.619,0,0,0,1.084-1.64,3.946,3.946,0,0,0,.456-2.424,4.059,4.059,0,0,0-.442-2.424,10.512,10.512,0,0,0-1.1-1.74,3.522,3.522,0,0,1-.67-1.027,3.877,3.877,0,0,1,.684-1.083c2.238-2.766,2.238-5.5.014-8.27l-.684-.841.613-.727a5.967,5.967,0,0,0,.014-8.2l-.642-.784.713-.884a6.166,6.166,0,0,0,1.583-5.133,7.353,7.353,0,0,0-1.7-3.265l-.627-.7.556-.613a6.039,6.039,0,0,0,1.5-5.917,7.938,7.938,0,0,0-1.668-2.737c-.513-.485-.442-.884.328-1.854,2.21-2.738,2.2-5.76-.057-8.255l-.656-.727.371-.47a6.463,6.463,0,0,0,1.868-4.52,4.011,4.011,0,0,0-.513-2.3,8.894,8.894,0,0,0-1.469-2.1,3.663,3.663,0,0,1-1.24-2.053c-1.469-5.418-3.621-10.437-9.282-21.672a125.368,125.368,0,0,0-7.115-13.017l-1.141-1.711-.257-2.638-.257-2.624.4-.385a2.191,2.191,0,0,0,.513-.784c.057-.228.114-1.953.114-3.835,0-3.308-.014-3.436-.328-3.935-.613-1-.556-.984-7.542-.984C157.716-1199,157.559-1198.986,157.1-1198.7Z" transform="translate(0 0)"/></g></svg>